<svg width="17" height="17" viewBox="0 0 17 17" fill="none" xmlns="http://www.w3.org/2000/svg">
<path d="M3.54102 14.1667L5.25022 12.4575M5.25022 12.4575C5.54254 12.7498 5.88957 12.9817 6.27149 13.1399C6.65342 13.2981 7.06277 13.3795 7.47616 13.3795C7.88956 13.3795 8.2989 13.2981 8.68083 13.1399C9.06276 12.9817 9.40978 12.7498 9.7021 12.4575C9.99441 12.1652 10.2263 11.8181 10.3845 11.4362C10.5427 11.0543 10.6241 10.6449 10.6241 10.2315C10.6241 9.81814 10.5427 9.4088 10.3845 9.02687C10.2263 8.64494 9.99441 8.29792 9.7021 8.0056C9.11174 7.41525 8.31105 7.08359 7.47616 7.08359C6.64127 7.08359 5.84058 7.41525 5.25022 8.0056C4.65987 8.59596 4.32821 9.39665 4.32821 10.2315C4.32821 11.0664 4.65987 11.8671 5.25022 12.4575Z" stroke="white" stroke-width="1.5" stroke-linecap="round" stroke-linejoin="round"/>
<path d="M2.12435 10.7582C1.65904 9.95653 1.41462 9.04583 1.41602 8.11893C1.41602 5.19988 3.7946 2.83334 6.72852 2.83334H10.2702C13.2041 2.83334 15.5827 5.19988 15.5827 8.11893C15.5827 10.421 14.1044 12.3788 12.041 13.1042" stroke="white" stroke-width="1.5" stroke-linecap="round" stroke-linejoin="round"/>
</svg>
