<svg width="17" height="17" viewBox="0 0 17 17" fill="none" xmlns="http://www.w3.org/2000/svg">
<g clip-path="url(#clip0_2_112)">
<path d="M12.7493 12.75C14.3142 12.75 15.5827 10.213 15.5827 7.08335C15.5827 3.95374 14.3142 1.41669 12.7493 1.41669C11.1845 1.41669 9.91602 3.95374 9.91602 7.08335C9.91602 10.213 11.1845 12.75 12.7493 12.75Z" stroke="black" stroke-opacity="0.5" stroke-width="1.0625" stroke-linecap="round" stroke-linejoin="round"/>
<path d="M12.7493 1.41669C10.5514 1.41669 5.99539 3.1011 3.37881 4.1466C2.18031 4.62544 1.41602 5.79277 1.41602 7.08335C1.41602 8.37394 2.18102 9.54127 3.37881 10.0201C5.99539 11.0656 10.5514 12.75 12.7493 12.75M7.79102 15.5834L6.41472 14.8254C5.67996 14.4188 5.08395 13.8012 4.70365 13.0525C4.32334 12.3038 4.1762 11.4582 4.28122 10.625" stroke="black" stroke-opacity="0.5" stroke-width="1.0625" stroke-linecap="round" stroke-linejoin="round"/>
</g>
<defs>
<clipPath id="clip0_2_112">
<rect width="17" height="17" fill="white"/>
</clipPath>
</defs>
</svg>
