<svg width="17" height="17" viewBox="0 0 17 17" fill="none" xmlns="http://www.w3.org/2000/svg">
<path d="M4.24999 5.94999C4.24999 5.72455 4.33954 5.50835 4.49895 5.34895C4.65835 5.18954 4.87455 5.09999 5.09999 5.09999H11.9C12.1254 5.09999 12.3416 5.18954 12.501 5.34895C12.6604 5.50835 12.75 5.72455 12.75 5.94999V7.64999C12.75 7.87542 12.6604 8.09162 12.501 8.25103C12.3416 8.41043 12.1254 8.49999 11.9 8.49999H5.09999C4.87455 8.49999 4.65835 8.41043 4.49895 8.25103C4.33954 8.09162 4.24999 7.87542 4.24999 7.64999V5.94999ZM11.9 5.94999H5.09999V7.64999H11.9V5.94999ZM10.2 9.34999C9.97455 9.34999 9.75835 9.43954 9.59895 9.59895C9.43954 9.75835 9.34999 9.97455 9.34999 10.2V11.05C9.34999 11.2754 9.43954 11.4916 9.59895 11.651C9.75835 11.8104 9.97455 11.9 10.2 11.9H11.9C12.1254 11.9 12.3416 11.8104 12.501 11.651C12.6604 11.4916 12.75 11.2754 12.75 11.05V10.2C12.75 9.97455 12.6604 9.75835 12.501 9.59895C12.3416 9.43954 12.1254 9.34999 11.9 9.34999H10.2ZM10.2 10.2H11.9V11.05H10.2V10.2ZM4.24999 9.77499C4.24999 9.66227 4.29476 9.55417 4.37447 9.47447C4.45417 9.39476 4.56227 9.34999 4.67499 9.34999H8.07499C8.18771 9.34999 8.29581 9.39476 8.37551 9.47447C8.45521 9.55417 8.49999 9.66227 8.49999 9.77499C8.49999 9.8877 8.45521 9.99581 8.37551 10.0755C8.29581 10.1552 8.18771 10.2 8.07499 10.2H4.67499C4.56227 10.2 4.45417 10.1552 4.37447 10.0755C4.29476 9.99581 4.24999 9.8877 4.24999 9.77499ZM4.67499 11.05C4.56227 11.05 4.45417 11.0948 4.37447 11.1745C4.29476 11.2542 4.24999 11.3623 4.24999 11.475C4.24999 11.5877 4.29476 11.6958 4.37447 11.7755C4.45417 11.8552 4.56227 11.9 4.67499 11.9H8.07499C8.18771 11.9 8.29581 11.8552 8.37551 11.7755C8.45521 11.6958 8.49999 11.5877 8.49999 11.475C8.49999 11.3623 8.45521 11.2542 8.37551 11.1745C8.29581 11.0948 8.18771 11.05 8.07499 11.05H4.67499ZM2.54999 5.09999C2.54999 4.42369 2.81865 3.77508 3.29687 3.29687C3.77508 2.81865 4.42369 2.54999 5.09999 2.54999H11.9C12.5763 2.54999 13.2249 2.81865 13.7031 3.29687C14.1813 3.77508 14.45 4.42369 14.45 5.09999V11.9C14.45 12.5763 14.1813 13.2249 13.7031 13.7031C13.2249 14.1813 12.5763 14.45 11.9 14.45H5.09999C4.42369 14.45 3.77508 14.1813 3.29687 13.7031C2.81865 13.2249 2.54999 12.5763 2.54999 11.9V5.09999ZM5.09999 3.39999C4.64912 3.39999 4.21672 3.57909 3.89791 3.89791C3.57909 4.21672 3.39999 4.64912 3.39999 5.09999V11.9C3.39999 12.3509 3.57909 12.7833 3.89791 13.1021C4.21672 13.4209 4.64912 13.6 5.09999 13.6H11.9C12.3509 13.6 12.7833 13.4209 13.1021 13.1021C13.4209 12.7833 13.6 12.3509 13.6 11.9V5.09999C13.6 4.64912 13.4209 4.21672 13.1021 3.89791C12.7833 3.57909 12.3509 3.39999 11.9 3.39999H5.09999Z" fill="black" fill-opacity="0.5"/>
</svg>
