<svg width="17" height="17" viewBox="0 0 17 17" fill="none" xmlns="http://www.w3.org/2000/svg">
<path d="M1.77084 6.37501H15.2292M4.95834 4.25001H4.96472M7.79168 4.25001H7.79805M1.77084 8.50001C1.77084 5.32809 1.77084 3.74143 2.75614 2.75614C3.74143 1.77084 5.32739 1.77084 8.50001 1.77084C11.6719 1.77084 13.2586 1.77084 14.2439 2.75614C15.2292 3.74143 15.2292 5.32739 15.2292 8.50001C15.2292 11.6719 15.2292 13.2586 14.2439 14.2439C13.2586 15.2292 11.6726 15.2292 8.50001 15.2292C5.32809 15.2292 3.74143 15.2292 2.75614 14.2439C1.77084 13.2586 1.77084 11.6726 1.77084 8.50001Z" stroke="black" stroke-opacity="0.5" stroke-width="1.0625" stroke-linecap="round" stroke-linejoin="round"/>
<path d="M5.66669 9.20834L6.53581 9.95705C6.9006 10.2723 7.08335 10.4295 7.08335 10.625C7.08335 10.8205 6.9006 10.9778 6.53581 11.293L5.66669 12.0417M8.50002 12.0417H11.3334" stroke="black" stroke-opacity="0.5" stroke-width="1.0625" stroke-linecap="round" stroke-linejoin="round"/>
</svg>
