<svg width="17" height="17" viewBox="0 0 17 17" fill="none" xmlns="http://www.w3.org/2000/svg">
<path d="M7.08332 13.4109H9.91666C10.0106 13.4109 10.1007 13.3736 10.1671 13.3071C10.2335 13.2407 10.2708 13.1506 10.2708 13.0567C10.2708 12.9628 10.2335 12.8727 10.1671 12.8063C10.1007 12.7399 10.0106 12.7025 9.91666 12.7025H7.08332C6.98939 12.7025 6.89931 12.7399 6.83289 12.8063C6.76647 12.8727 6.72916 12.9628 6.72916 13.0567C6.72916 13.1506 6.76647 13.2407 6.83289 13.3071C6.89931 13.3736 6.98939 13.4109 7.08332 13.4109Z" fill="black" fill-opacity="0.5"/>
<path d="M11.8483 15.5387H5.15171C4.70731 15.5122 4.29135 15.3113 3.99434 14.9796C3.69733 14.648 3.5433 14.2125 3.56575 13.7679V3.23214C3.5433 2.78751 3.69733 2.35201 3.99434 2.02038C4.29135 1.68874 4.70731 1.48781 5.15171 1.4613H11.8483C12.2927 1.48781 12.7086 1.68874 13.0057 2.02038C13.3027 2.35201 13.4567 2.78751 13.4342 3.23214V13.7679C13.4567 14.2125 13.3027 14.648 13.0057 14.9796C12.7086 15.3113 12.2927 15.5122 11.8483 15.5387ZM5.15171 2.16964C4.89549 2.1967 4.6601 2.32311 4.49602 2.52175C4.33195 2.72039 4.25227 2.97542 4.27408 3.23214V13.7679C4.25227 14.0246 4.33195 14.2796 4.49602 14.4783C4.6601 14.6769 4.89549 14.8033 5.15171 14.8304H11.8483C12.1045 14.8033 12.3399 14.6769 12.504 14.4783C12.6681 14.2796 12.7477 14.0246 12.7259 13.7679V3.23214C12.7477 2.97542 12.6681 2.72039 12.504 2.52175C12.3399 2.32311 12.1045 2.1967 11.8483 2.16964H5.15171Z" fill="black" fill-opacity="0.5"/>
</svg>
