<svg width="17" height="17" viewBox="0 0 17 17" fill="none" xmlns="http://www.w3.org/2000/svg">
<path d="M6.4515 8.32858L8.06933 6.7065L6.61512 5.24733L5.79417 6.06758L5.29267 5.56608L6.10938 4.74583L4.72671 3.36316L3.10462 4.98525L6.4515 8.32858ZM12.0006 13.8819L13.6227 12.2598L12.2407 10.8772L11.4205 11.6932L10.9197 11.1917L11.735 10.3714L10.29 8.93066L8.67142 10.5485L12.0006 13.8819ZM5.06671 14.1667H2.83333V11.9326L5.94575 8.82016L2.125 4.98596L4.72671 2.38425L8.57933 6.2227L11.7435 3.05433C11.8214 2.97594 11.9035 2.91951 11.99 2.88504C12.0764 2.85057 12.1685 2.83333 12.2662 2.83333C12.364 2.83333 12.456 2.85057 12.5425 2.88504C12.6289 2.91951 12.7113 2.97594 12.7897 3.05433L13.9457 4.25566C14.0241 4.33358 14.0784 4.41575 14.1086 4.50216C14.1388 4.58858 14.1537 4.68066 14.1532 4.77841C14.1527 4.87616 14.1376 4.96541 14.1079 5.04616C14.0781 5.12691 14.0243 5.20625 13.9464 5.28416L10.8085 8.43908L14.6165 12.2733L12.0133 14.875L8.17912 11.0542L5.06671 14.1667ZM3.54167 13.4583H4.76496L11.7208 6.50675L10.4925 5.27991L3.54167 12.235V13.4583ZM11.1152 5.88908L10.4932 5.27991L11.7201 6.50746L11.1152 5.88908Z" fill="black" fill-opacity="0.5"/>
</svg>
